<svg class="icon" viewBox="0 0 1053 1024" xmlns="http://www.w3.org/2000/svg" width="131.625" height="128"><defs><style/></defs><path d="M526.629 0c290.845 0 526.628 200.616 526.628 447.927 0 247.515-228.206 447.927-526.628 447.927-33.763 0-67.467-4.389-99.475-9.363L197.486 1024V797.286C77.18 715.28 0 589.326 0 447.926 0 200.617 235.725 0 526.629 0zm0 830.903c263.314 0 468.114-175.25 468.114-387.716 0-212.494-209.657-384.673-468.114-384.673-258.634 0-468.115 172.179-468.115 384.673 0 130.429 78.995 245.497 199.68 315.041l-.731 154.595 156.174-96.52c36.25 7.315 73.963 14.6 112.992 14.6zm29.227-304.274a29.228 29.228 0 1 1 0 58.514H321.858c-16.15 0-29.287-13.166-29.287-29.345a29.199 29.199 0 0 1 29.287-29.17h233.998zm146.315 0c17.555 0 29.258 13.019 29.258 29.169 0 16.18-11.703 29.345-29.258 29.345h-29.257c-17.554 0-29.257-13.166-29.257-29.345 0-16.15 11.703-29.17 29.257-29.17h29.257zm58.485-204.8c16.15 0 29.287 13.165 29.287 29.344a29.199 29.199 0 0 1-29.287 29.17H292.571a29.228 29.228 0 1 1 0-58.514h468.115z"/></svg>