<svg class="icon" viewBox="0 0 1024 1024" xmlns="http://www.w3.org/2000/svg" width="200" height="200"><defs><style/></defs><path d="M400.665 430.477h223.683v34.206H400.665z"/><path d="M512.004 0C229.23 0 0 229.23 0 511.995 0 794.77 229.23 1024 512.004 1024c282.763 0 511.993-229.23 511.993-512.005C1024 229.231 794.77 0 512.004 0zM486.8 718.982c-20.58 17.14-46.339 31.983-77.29 44.516-30.942 12.541-76.925 22.957-137.925 31.246-4-17.211-15.222-37.593-33.658-61.155 48.197-1.988 86.67-6.57 115.435-13.765 28.762-7.187 54.896-19.397 78.382-36.635 23.494-17.228 37.911-48.24 43.248-93.033a206554.24 206554.24 0 0 1 70.875 19.38c-18.794 55.822-38.49 92.3-59.067 109.446zM309.315 533.598H715.7a953.426 953.426 0 0 0-2.473 69.028c0 23.64.824 47.475 2.473 71.5h-64.282v-91.029H373.602V683.98h-64.287c1.65-28.347 2.473-53.83 2.473-76.45 0-22.569-.823-47.207-2.473-73.932zm27.063-152.577h352.26v130.687h-352.26c1.65-26.696 2.473-49.725 2.473-69.07 0-19.216-.824-39.761-2.473-61.617zm393.21 411.249c-36.378-26.776-97.704-57.597-183.994-92.455 13.393-19.894 24.579-36.758 33.572-50.592 77.505 30.308 141.882 62.535 193.133 96.677-16.057 14.627-30.292 30.078-42.711 46.37zm47.655-374.11h-64.287v-63.974h-400.89v73.819h-64.288c1.649-25.024 2.463-46.4 2.463-64.121 0-19.148-.814-38.859-2.463-59.152H370.85c-19.606-20.578-38.485-42.814-56.632-66.718 16.067-10.606 32.14-21.203 48.205-31.81 24.736 24.737 46.504 52.798 65.303 84.174-12.898 8.874-23.686 13.646-32.372 14.356h86.227c0-29.154-.808-61.971-2.432-98.45h66.718c-1.622 31.932-2.429 64.748-2.429 98.45h59.107c26.036-38.285 42.19-69.48 48.439-93.59 25.464 11.85 49.497 21.25 72.09 28.209-17.757 16.03-37.443 37.824-59.071 65.381H777.24c-1.647 19.476-2.47 37.562-2.47 54.246.001 15.42.825 35.149 2.472 59.18z"/></svg>