<?xml version="1.0" standalone="no"?><!DOCTYPE svg PUBLIC "-//W3C//DTD SVG 1.1//EN" "http://www.w3.org/Graphics/SVG/1.1/DTD/svg11.dtd"><svg t="1576994189939" class="icon" viewBox="0 0 1024 1024" version="1.1" xmlns="http://www.w3.org/2000/svg" p-id="2072" data-spm-anchor-id="a313x.7781069.0.i4" width="128" height="128" xmlns:xlink="http://www.w3.org/1999/xlink"><defs><style type="text/css"></style></defs><path d="M512 917.333333c-200.533333 0-362.666667-160-362.666667-358.4 0-34.133333 4.266667-66.133333 12.8-98.133333 6.4-23.466667 14.933333-46.933333 27.733333-66.133333 19.2-34.133333 34.133333-57.6 55.466667-98.133333 23.466667-42.666667 21.333333-96 21.333333-96s42.666667 44.8 59.733333 83.2c12.8 32 2.133333 59.733333 2.133333 59.733333s61.866667-36.266667 98.133333-89.6c2.133333-4.266667 4.266667-6.4 4.266667-8.533333l0-2.133333C441.6 234.666667 448 219.733333 448 192c0-29.866667-14.933333-59.733333-32-83.2l0-2.133333c0 0 76.8 27.733333 138.666667 85.333333 83.2 74.666667 128 170.666667 128 170.666667s2.133333-44.8 14.933333-76.8c17.066667-51.2 59.733333-83.2 59.733333-83.2s4.266667 51.2 21.333333 96c17.066667 42.666667 46.933333 78.933333 55.466667 98.133333 10.666667 21.333333 19.2 42.666667 27.733333 66.133333 8.533333 29.866667 12.8 64 12.8 98.133333C874.666667 757.333333 712.533333 917.333333 512 917.333333zM814.933333 458.666667c-10.666667-29.866667-36.266667-59.733333-64-108.8-8.533333-14.933333-19.2-59.733333-19.2-59.733333-6.4 17.066667-10.666667 55.466667-25.6 98.133333-10.666667 32-21.333333 53.333333-25.6 59.733333 0-4.266667-8.533333-29.866667-96-151.466667-40.533333-55.466667-85.333333-91.733333-98.133333-102.4C490.666667 192 490.666667 192 490.666667 192l0 2.133333C488.533333 192 486.4 192 486.4 192l0 27.733333c-6.4 25.6-25.6 70.4-83.2 130.133333-61.866667 64-89.6 61.866667-89.6 61.866667s-12.8-12.8-19.2-34.133333c-8.533333-34.133333-6.4-64-6.4-64s-23.466667 32-44.8 64c-19.2 27.733333-29.866667 44.8-40.533333 76.8C194.133333 486.4 192 522.666667 192 556.8 192 731.733333 334.933333 874.666667 512 874.666667c177.066667 0 320-142.933333 320-317.866667C832 522.666667 825.6 488.533333 814.933333 458.666667zM682.666667 448C682.666667 448 682.666667 448 682.666667 448 682.666667 448 682.666667 448 682.666667 448z" p-id="2073" fill="#8a8a8a"></path></svg>