<svg class="icon" viewBox="0 0 1024 1024" xmlns="http://www.w3.org/2000/svg" data-spm-anchor-id="a313x.7781069.0.i4" width="128" height="128"><defs><style/></defs><path d="M512 917.333c-200.533 0-362.667-160-362.667-358.4 0-34.133 4.267-66.133 12.8-98.133 6.4-23.467 14.934-46.933 27.734-66.133 19.2-34.134 34.133-57.6 55.466-98.134 23.467-42.666 21.334-96 21.334-96s42.666 44.8 59.733 83.2c12.8 32 2.133 59.734 2.133 59.734s61.867-36.267 98.134-89.6c2.133-4.267 4.266-6.4 4.266-8.534V243.2C441.6 234.667 448 219.733 448 192c0-29.867-14.933-59.733-32-83.2v-2.133S492.8 134.4 554.667 192c83.2 74.667 128 170.667 128 170.667s2.133-44.8 14.933-76.8c17.067-51.2 59.733-83.2 59.733-83.2s4.267 51.2 21.334 96c17.066 42.666 46.933 78.933 55.466 98.133 10.667 21.333 19.2 42.667 27.734 66.133 8.533 29.867 12.8 64 12.8 98.134 0 196.266-162.134 356.266-362.667 356.266zm302.933-458.666c-10.666-29.867-36.266-59.734-64-108.8-8.533-14.934-19.2-59.734-19.2-59.734-6.4 17.067-10.666 55.467-25.6 98.134-10.666 32-21.333 53.333-25.6 59.733 0-4.267-8.533-29.867-96-151.467C544 241.067 499.2 204.8 486.4 194.133l4.267-2.133v2.133C488.533 192 486.4 192 486.4 192v27.733c-6.4 25.6-25.6 70.4-83.2 130.134-61.867 64-89.6 61.866-89.6 61.866s-12.8-12.8-19.2-34.133c-8.533-34.133-6.4-64-6.4-64s-23.467 32-44.8 64c-19.2 27.733-29.867 44.8-40.533 76.8-8.534 32-10.667 68.267-10.667 102.4 0 174.933 142.933 317.867 320 317.867S832 731.733 832 556.8c0-34.133-6.4-68.267-17.067-98.133zM682.667 448z"/></svg>