<?xml version="1.0" standalone="no"?><!DOCTYPE svg PUBLIC "-//W3C//DTD SVG 1.1//EN" "http://www.w3.org/Graphics/SVG/1.1/DTD/svg11.dtd"><svg t="1576988856339" class="icon" viewBox="0 0 1024 1024" version="1.1" xmlns="http://www.w3.org/2000/svg" p-id="22083" xmlns:xlink="http://www.w3.org/1999/xlink" width="128" height="128"><defs><style type="text/css"></style></defs><path d="M504.797867 984.200533c-263.918933 0-477.866667-214.016-477.866667-477.866667 0-203.707733 127.658667-377.173333 307.2-445.917867l0 73.9328c-140.9024 64.750933-238.933333 206.779733-238.933333 371.985067 0 226.2016 183.364267 409.6 409.6 409.6 226.2016 0 409.6-183.3984 409.6-409.6 0-165.239467-98.030933-307.234133-238.933333-371.985067L675.464533 60.381867c179.5072 68.778667 307.2 242.244267 307.2 445.917867C982.664533 770.184533 768.7168 984.200533 504.797867 984.200533zM726.664533 677.000533l-238.933333 0c-9.4208 0-17.066667-7.68-17.066667-17.066667l0-34.133333c0-9.454933 7.645867-17.066667 17.066667-17.066667l238.933333 0c9.4208 0 17.066667 7.611733 17.066667 17.066667l0 34.133333C743.7312 669.320533 736.085333 677.000533 726.664533 677.000533zM487.7312 403.899733c-9.4208 0-17.066667-7.645867-17.066667-17.066667l0-34.133333c0-9.4208 7.645867-17.066667 17.066667-17.066667l238.933333 0c9.4208 0 17.066667 7.645867 17.066667 17.066667l0 34.133333c0 9.4208-7.645867 17.066667-17.066667 17.066667L487.7312 403.899733zM777.864533 489.233067l0 34.133333c0 9.4208-7.645867 17.066667-17.066667 17.066667l-273.066667 0c-9.4208 0-17.066667-7.645867-17.066667-17.066667l0-34.133333c0-9.4208 7.645867-17.066667 17.066667-17.066667l273.066667 0C770.218667 472.1664 777.864533 479.812267 777.864533 489.233067zM453.597867 299.758933l0 1.774933c-84.821333 0-153.6 68.778667-153.6 153.6l0 136.533333c0 84.7872 68.778667 153.6 153.6 153.6l238.933333 0c8.8064 0 17.3056-1.194667 25.7024-2.594133-18.090667 53.077333-29.832533 70.8608-93.969067 70.8608l-170.666667 0c-122.538667 0-221.866667-99.328-221.866667-221.866667l0-136.533333c0-107.861333 77.038933-197.563733 179.029333-217.565867 32.836267-15.530667 59.904-35.669333 59.904-72.567467l0-136.533333c0 1.8432 102.4 26.3168 102.4 102.4l0 34.133333C573.064533 255.044267 497.595733 291.805867 453.597867 299.758933z" p-id="22084" fill="#bfbfbf"></path></svg>