<svg class="icon" viewBox="0 0 1024 1024" xmlns="http://www.w3.org/2000/svg" width="128" height="128"><defs><style/></defs><path d="M504.798 984.2c-263.92 0-477.867-214.015-477.867-477.866 0-203.708 127.659-377.173 307.2-445.918v73.933C193.23 199.099 95.198 341.129 95.198 506.334c0 226.201 183.364 409.6 409.6 409.6 226.201 0 409.6-183.399 409.6-409.6 0-165.24-98.031-307.234-238.933-371.985V60.382c179.507 68.779 307.2 242.244 307.2 445.918 0 263.885-213.948 477.9-477.867 477.9zM726.665 677H487.73c-9.42 0-17.066-7.68-17.066-17.066V625.8c0-9.455 7.645-17.067 17.066-17.067h238.934c9.42 0 17.066 7.612 17.066 17.067v34.133c0 9.387-7.646 17.067-17.066 17.067zM487.73 403.9c-9.42 0-17.066-7.646-17.066-17.067V352.7c0-9.421 7.645-17.067 17.066-17.067h238.934c9.42 0 17.066 7.646 17.066 17.067v34.133c0 9.42-7.646 17.067-17.066 17.067H487.73zm290.134 85.333v34.133c0 9.421-7.646 17.067-17.067 17.067H487.73c-9.42 0-17.066-7.646-17.066-17.067v-34.133c0-9.42 7.645-17.067 17.066-17.067h273.067c9.42 0 17.067 7.646 17.067 17.067zM453.598 299.76v1.775c-84.821 0-153.6 68.779-153.6 153.6v136.533c0 84.787 68.779 153.6 153.6 153.6H692.53c8.807 0 17.306-1.194 25.703-2.594-18.091 53.077-29.833 70.86-93.97 70.86H453.599c-122.539 0-221.867-99.327-221.867-221.866V455.134c0-107.861 77.04-197.564 179.03-217.566 32.836-15.53 59.904-35.67 59.904-72.567V28.467c0 1.843 102.4 26.317 102.4 102.4v34.134c0 90.043-75.47 126.805-119.467 134.758z"/></svg>