<svg class="icon" viewBox="0 0 1024 1024" xmlns="http://www.w3.org/2000/svg" width="200" height="200"><defs><style/></defs><path d="M512 128L128 326.4h768zM128 832h768v64H128v-64zM230.4 384v384c0 19.2 12.8 32 32 32s32-12.8 32-32V384c0-19.2-12.8-32-32-32s-32 12.8-32 32zM390.4 384v384c0 19.2 12.8 32 32 32s32-12.8 32-32V384c0-19.2-12.8-32-32-32s-32 12.8-32 32zM569.6 384v384c0 19.2 12.8 32 32 32s32-12.8 32-32V384c0-19.2-12.8-32-32-32s-32 12.8-32 32zM736 384v384c0 19.2 12.8 32 32 32s32-12.8 32-32V384c0-19.2-12.8-32-32-32s-32 12.8-32 32z"/></svg>