<svg class="icon" viewBox="0 0 1024 1024" xmlns="http://www.w3.org/2000/svg" width="200" height="200"><defs><style/></defs><path d="M488.8 170c54.4 0 98.6 44.2 98.6 98.6v44.9c0 54.4-44.2 98.6-98.6 98.6h-17.5c-54.4 0-98.6-44.2-98.6-98.6v-44.9c0-54.4 44.2-98.6 98.6-98.6h17.5m0-60h-17.5c-87.6 0-158.6 71-158.6 158.6v44.9c0 87.6 71 158.6 158.6 158.6h17.5c87.6 0 158.6-71 158.6-158.6v-44.9C647.3 181 576.3 110 488.8 110z"/><path d="M562.5 496.4c32.8 0 63.6 12.8 86.8 35.9 23.2 23.2 35.9 54 35.9 86.8v46.3c0 46.7-38 84.6-84.6 84.6H359.4c-46.7 0-84.6-38-84.6-84.6v-46.3c0-32.8 12.8-63.6 35.9-86.8 23.2-23.2 54-35.9 86.8-35.9h165m0-60h-165c-100.9 0-182.7 81.8-182.7 182.7v46.3c0 79.9 64.7 144.6 144.6 144.6h241.2c79.9 0 144.6-64.7 144.6-144.6v-46.3c0-100.9-81.8-182.7-182.7-182.7z"/><path d="M138.5 789.2c-14.7 0-27.5-11.1-29.3-26.3-4.1-33.4-2.2-78.9 5.3-124.9 8.1-49.9 22-95.5 39.2-128.4 23.8-45.8 60.5-83.6 83.9-104.9-11.4-19.3-19.9-41.3-25.1-64.9-7.7-35.3-7.6-73.6.3-110.8 13.7-64.2 59.8-94.8 61.8-96.1l31.9 50.5.3-.2c-1.1.8-27.8 19.3-36.1 58.4-11.9 55.8-.6 112.9 29.4 148.9 5.2 6.3 7.7 14.5 6.8 22.7-.9 8.2-5.1 15.6-11.6 20.6-.6.4-59.1 45.7-89.2 103.7-30.9 59.5-44.9 162.6-38.1 217.8 2 16.4-9.5 31.4-25.7 33.5-1.4.3-2.6.4-3.8.4zm687 0c-1.2 0-2.5-.1-3.7-.2-16.2-2.1-27.7-17-25.7-33.5 6.8-55.3-7.2-158.3-38.1-217.8-30.4-58.4-88.7-103.3-89.2-103.7-6.5-5-10.7-12.4-11.6-20.6-.9-8.2 1.5-16.4 6.8-22.7 30-36.1 41.3-93.2 29.4-148.9-8.3-39.1-35-57.6-36.1-58.4l.3.2 31.9-50.5c2 1.3 48.1 31.8 61.8 96.1 7.9 37.2 8 75.5.3 110.8-5.1 23.6-13.7 45.6-25.1 64.9 23.4 21.3 60.1 59.1 83.9 104.9 17.1 32.9 31 78.5 39.2 128.4 7.5 46 9.4 91.5 5.3 124.9-1.9 15-14.6 26.1-29.4 26.1z"/></svg>